# xmcd
#
# Track frame offsets: 
#        150
#        18824
#        42467
#        60519
#        75154
#        92439
#        117755
#        138213
#        154709
#        173282
#        192364
#        207583
#        230008
#        251065
#        264930
#
# Disc length: 3842 seconds
#
# Revision: 9
# Processed by: cddbd v1.5.2PL0 Copyright (c) Steve Scherf et al.
# Submitted via: ExactAudioCopy v0.99pb3
#
DISCID=b30f000f
DTITLE=White, Barry - Barry White Gold [CD1]
DYEAR=2008
DGENRE=R&B/Soul
TTITLE0=I'm Gonna Love You, Just A Little More Baby
TTITLE1=I've Got So Much To Give
TTITLE2=Never, Never Gonna Give Ya Up
TTITLE3=Honey, Please Can't Ya See
TTITLE4=Can't Get Enough Of Your Love, Babe
TTITLE5=Baby Blues (Love Unlimited Orchestra )
TTITLE6=You're The First, The Last, My Everything
TTITLE7=What Am I Gonna Do With You
TTITLE8=I'll Do For You Anything You Want Me To
TTITLE9=Let The Music Play
TTITLE10=You See The Trouble With Me
TTITLE11=My Sweet Summer Suite (Love Unlimited Orchestra )
TTITLE12=Don't Make Me Wait Too Long
TTITLE13=I'm Qualified To Satisfy You
TTITLE14=Midnight And You (Love Unlimited Orchestra)
EXTD=YEAR: 2000
EXTT0=
EXTT1=
EXTT2=
EXTT3=
EXTT4=
EXTT5=
EXTT6=
EXTT7=
EXTT8=
EXTT9=
EXTT10=
EXTT11=
EXTT12=
EXTT13=
EXTT14=
PLAYORDER=
